<svg fill="none" height="48" viewBox="0 0 48 48" width="48" xmlns="http://www.w3.org/2000/svg"><path d="m0 0h48v48h-48z" fill="#fff" fill-opacity=".01"/><g stroke="#000" stroke-linecap="round" stroke-linejoin="round" stroke-width="4"><path d="m11 11 8 8m18 18-8-8"/><path d="m37 11-8 8m-18 18 8-8"/><path d="m19 19h10v10h-10z" fill="#2f88ff"/><path d="m37 18c1.3845 0 2.7379-.4105 3.889-1.1797s2.0483-1.8624 2.5782-3.1415c.5298-1.2791.6684-2.6866.3983-4.04443-.2701-1.35787-.9368-2.60515-1.9157-3.58411-.979-.97897-2.2263-1.64566-3.5842-1.91575-1.3578-.2701-2.7653-.13148-4.0444.39834-1.2791.52981-2.3723 1.42702-3.1415 2.57816s-1.1797 2.50452-1.1797 3.88899m7 19c1.3845 0 2.7379.4105 3.889 1.1797s2.0483 1.8624 2.5782 3.1415c.5298 1.2791.6684 2.6866.3983 4.0444-.2701 1.3579-.9368 2.6052-1.9157 3.5841-.979.979-2.2263 1.6457-3.5842 1.9158-1.3578.2701-2.7653.1315-4.0444-.3983-1.2791-.5299-2.3723-1.4271-3.1415-2.5782s-1.1797-2.5045-1.1797-3.889m-19-19c-1.38447 0-2.73784-.4105-3.88899-1.1797-1.15114-.7692-2.04835-1.8624-2.57816-3.1415-.52982-1.2791-.66844-2.6866-.39834-4.04443.27009-1.35787.93678-2.60515 1.91575-3.58411.97896-.97897 2.22624-1.64566 3.58411-1.91575 1.35783-.2701 2.76533-.13148 4.04443.39834 1.2791.52981 2.3723 1.42702 3.1415 2.57816s1.1797 2.50452 1.1797 3.88899m-7 19c-1.38447 0-2.73784.4105-3.88899 1.1797-1.15114.7692-2.04835 1.8624-2.57816 3.1415-.52982 1.2791-.66844 2.6866-.39834 4.0444.27009 1.3579.93678 2.6052 1.91575 3.5841.97896.979 2.22624 1.6457 3.58411 1.9158 1.35783.2701 2.76533.1315 4.04443-.3983 1.2791-.5299 2.3723-1.4271 3.1415-2.5782s1.1797-2.5045 1.1797-3.889"/></g></svg>